{"title":"The.Lincoln.Lawyer.2011.R5.FULL.LINE.AC3-5.1.HQ.Hive-CM8","uid":6350125,"size":1931242596,"categoryP":"video","categoryS":"movies","magnet":"?xt=urn:btih:08e60f94d56e588e239eb017534ea6b271182c37&amp;dn=The.Lincoln.Lawyer.2011.R5.FULL.LINE.AC3-5.1.HQ.Hive-CM8&amp;tr=udp%3A%2F%2Ftracker.openbittorrent.com%3A80&amp;tr=udp%3A%2F%2Fopen.demonii.com%3A1337&amp;tr=udp%3A%2F%2Ftracker.coppersurfer.tk%3A6969&amp;tr=udp%3A%2F%2Fexodus.desync.com%3A6969","seeders":0,"leechers":0,"uploader":"sceneline","files":5,"time":1303970764,"description":"- &lt;a href=&quot;\nhttp://www.Speed.Cd&quot; rel=&quot;nofollow&quot; target=&quot;_NEW&quot;&gt;\nhttp://www.Speed.Cd&lt;/a&gt; \n       &lt;a href=&quot;\nhttp://www.Speed.Cd&quot; rel=&quot;nofollow&quot; target=&quot;_NEW&quot;&gt;\nhttp://www.Speed.Cd&lt;/a&gt;       the fast  and The Hottest Private Tracker on the net\n\nPlease Seed back to make the speed Faster!!!\n\nand don't forget to visit      ...... http://www.Speed.Cd..........\n-[img]http://img862.imageshack.us/img862/3954/thelincolnlawyerposter0.jpg[/img]\n\n[color=blue][size=5][b]The.Lincoln.Lawyer.2011.R5.FULL.LINE.AC3-5.1.HQ.Hive-CM8[/b][/size][/color]\n\n\n[b]Thx Hive\n\nCM8 Doing It Right The First Time :D\n\n\nSources\nVideo: Russian DVD-9\nAudio: 2 Lines (imagines + conebones)\nthx to both\n\nEncode: well that was a hell of work, Video got very nice looks like a blurayrip. \nAdded brightness,sharpness,rgb and denoise.\nThere was a 10sec black bar at the top right in the middle of the film like on mechanic which i fixed, its not noticable now.\nFor the Audio i can proudly say now its a full clear line mixed from two lines.\nboth cleaned from the problems they had.\nThere was also a lot of voice in the russian sourround channels which i cleaned out too.\nI synced the full line back to the r5, and entered it back into the russian 5.1 track.\nFinally a fully complete lipsync version, which looks like a retail version now.\nAs always my audio will be 100% sync to all direct encodes of the russian dvd-9.\n\ngreetz and thx to OneTwo and Conebone for making this version possible.\n\nVideo: 720x304 @bitrate\nAudio: English AC3 5.1 @448\nSample: yes included[/b]\n\n\n[url]http://www.imdb.com/title/tt1189340/[/url]\n\n\nGeneral\nComplete name                    : The.Lincoln.Lawyer.2011.R5.FULL.LINE.AC3-5.1.HQ.Hive-CM8.avi\nFormat                           : AVI\nFormat/Info                      : Audio Video Interleave\nFile size                        : 1.79 GiB\nDuration                         : 1h 53mn\nOverall bit rate                 : 2 259 Kbps\nWriting application              : Nandub v1.0rc2\nWriting library                  : Nandub build 1853/release\n\nVideo\nID                               : 0\nFormat                           : MPEG-4 Visual\nFormat profile                   : Advanced Simple@L5\nFormat settings, BVOP            : Yes\nFormat settings, QPel            : Yes\nFormat settings, GMC             : No warppoints\nFormat settings, Matrix          : Default (H.263)\nMuxing mode                      : Packed bitstream\nCodec ID                         : XVID\nCodec ID/Hint                    : XviD\nDuration                         : 1h 53mn\nBit rate                         : 1 801 Kbps\nWidth                            : 720 pixels\nHeight                           : 304 pixels\nDisplay aspect ratio             : 2.35:1\nFrame rate                       : 25.000 fps\nColor space                      : YUV\nChroma subsampling               : 4:2:0\nBit depth                        : 8 bits\nScan type                        : Progressive\nBits/(Pixel*Frame)               : 0.329\nStream size                      : 1.43 GiB (80%)\nWriting library                  : XviD 1.2.1 (UTC 2008-12-04)\n\nAudio\nID                               : 1\nFormat                           : AC-3\nFormat/Info                      : Audio Coding 3\nMode extension                   : CM (complete main)\nCodec ID                         : 2000\nDuration                         : 1h 53mn\nBit rate mode                    : Constant\nBit rate                         : 448 Kbps\nChannel(s)                       : 6 channels\nChannel positions                : Front: L C R, Side: L R, LFE\nSampling rate                    : 48.0 KHz\nBit depth                        : 16 bits\nStream size                      : 364 MiB (20%)\nAlignment                        : Split accross interleaves\nInterleave, duration             : 40 ms (1.00 video frame)\nInterleave, preload duration     : 500 ms\n\n\n\nMatthew McConaughey\t ... \tMick Haller\nMarisa Tomei\t... \tMaggie McPherson\nRyan Phillippe\t... \tLouis Roulet\nWilliam H. Macy\t... \tFrank Levin\nJosh Lucas\t... \tTed Minton\nJohn Leguizamo\t... \tVal Valenzuela\n\n\nMatt Haller is a defense lawyer who works out of his Lincoln. When a wealthy \nRealtor is accused of raping a prostitute, Haller is asked to defend him. \nThe man claims that the woman is trying to get some money out of him. \nBut when Haller looks at the evidence against him, he learns that this case \nmight be linked to an old case of his. \n\n\n\n[img]http://img27.imageshack.us/img27/6595/30764392.png[/img]\n[img]http://img98.imageshack.us/img98/5415/lilis.png[/img]\n[img]http://img402.imageshack.us/img402/232/lililik.png[/img]\n[img]http://img846.imageshack.us/img846/7379/lliilili.png[/img]\n[img]http://img9.imageshack.us/img9/9968/lliililili.png[/img]\n[img]http://img31.imageshack.us/img31/1151/lliilililili.png[/img]\n[img]http://img3.imageshack.us/img3/2047/lliililliilili.png[/img]\n[img]http://img696.imageshack.us/img696/5627/lliilliilliilili.png[/img]\n[img]http://img163.imageshack.us/img163/7835/lliilliilliililliili.png[/img]\n[img]http://img836.imageshack.us/img836/64/lliilliilliilliili.png[/img]\n[img]http://img25.imageshack.us/img25/750/lliilliliilliililliili.png[/img]\n[img]http://img838.imageshack.us/img838/7795/lliillililiilliililliil.png[/img]\n\n\n\n\n\nGreetz\n\nViSiON,LUSi,SANTi,MAGNET,THC,T0XiCiNK,LKRG,IMAGiNE,WBZ,FLAWL3SS,NOVA\nVik,Rapeseed,D2U,SAFC,goldadvance,MEMORY100,KaN1vE,Unevano,Pinnz,Wayne,Mr Hive\nand all P2P groups \nGreat Work Guys :D\n\n&lt;a class=&quot;__cf_email__&quot; href=&quot;/cdn-cgi/l/email-protection&quot; data-cfemail=&quot;296a641169415c5a4144484045074a4644&quot;&gt;[email&amp;#160;protected]&lt;/a&gt;&lt;script cf-hash='f9e31' type=&quot;text/javascript&quot;&gt;\n/* &lt;![CDATA[ */!function(){try{var t=&quot;currentScript&quot;in document?document.currentScript:function(){for(var t=document.getElementsByTagName(&quot;script&quot;),e=t.length;e--;)if(t[e].getAttribute(&quot;cf-hash&quot;))return t[e]}();if(t&amp;&amp;t.previousSibling){var e,r,n,i,c=t.previousSibling,a=c.getAttribute(&quot;data-cfemail&quot;);if(a){for(e=&quot;&quot;,r=parseInt(a.substr(0,2),16),n=2;a.length-n;n+=2)i=parseInt(a.substr(n,2),16)^r,e+=String.fromCharCode(i);e=document.createTextNode(e),c.parentNode.replaceChild(e,c)}}}catch(u){}}();/* ]]&gt; */&lt;/script&gt;","torrent":{"xt":"urn:btih:08e60f94d56e588e239eb017534ea6b271182c37","amp;dn":"The.Lincoln.Lawyer.2011.R5.FULL.LINE.AC3-5.1.HQ.Hive-CM8","amp;tr":["udp%3A%2F%2Ftracker.openbittorrent.com%3A80","udp%3A%2F%2Fopen.demonii.com%3A1337","udp%3A%2F%2Ftracker.coppersurfer.tk%3A6969","udp%3A%2F%2Fexodus.desync.com%3A6969"],"infoHash":"08e60f94d56e588e239eb017534ea6b271182c37","infoHashBuffer":{"type":"Buffer","data":[8,230,15,148,213,110,88,142,35,158,176,23,83,78,166,178,113,24,44,55]},"announce":[],"urlList":[]}}